<?xml version="1.0" encoding="UTF-8"?>
<svg xmlns="http://www.w3.org/2000/svg" width="541" height="863" viewBox="0 0 541 863" fill="none">
  <path d="M13.35 846V797H19.09L41.07 834.03H37.99L59.69 797H65.43L65.5 846H58.78L58.71 807.57H60.32L41 840.05H37.78L18.32 807.57H20.07V846H13.35ZM125.705 846.56C119.265 846.56 114.202 844.717 110.515 841.03C106.829 837.343 104.985 831.953 104.985 824.86V797H111.985V824.58C111.985 830.04 113.175 834.03 115.555 836.55C117.982 839.07 121.389 840.33 125.775 840.33C130.209 840.33 133.615 839.07 135.995 836.55C138.422 834.03 139.635 830.04 139.635 824.58V797H146.425V824.86C146.425 831.953 144.582 837.343 140.895 841.03C137.255 844.717 132.192 846.56 125.705 846.56ZM185.977 846V797H191.717L224.127 837.25H221.117V797H228.117V846H222.377L189.967 805.75H192.977V846H185.977ZM267.983 846V797H288.633C293.86 797 298.457 798.027 302.423 800.08C306.437 802.133 309.54 805.003 311.733 808.69C313.973 812.377 315.093 816.647 315.093 821.5C315.093 826.353 313.973 830.623 311.733 834.31C309.54 837.997 306.437 840.867 302.423 842.92C298.457 844.973 293.86 846 288.633 846H267.983ZM274.983 839.91H288.213C292.273 839.91 295.773 839.14 298.713 837.6C301.7 836.06 304.01 833.913 305.643 831.16C307.277 828.36 308.093 825.14 308.093 821.5C308.093 817.813 307.277 814.593 305.643 811.84C304.01 809.087 301.7 806.94 298.713 805.4C295.773 803.86 292.273 803.09 288.213 803.09H274.983V839.91ZM351.015 846V797H358.015V846H351.015ZM390.465 846L412.655 797H419.585L441.845 846H434.495L414.685 800.92H417.485L397.675 846H390.465ZM399.915 833.75L401.805 828.15H429.385L431.415 833.75H399.915ZM474.355 846V797H481.355V839.91H507.885V846H474.355Z" fill="#D6FF1E"></path>
  <path d="M32.1973 752.295C32.1973 753.981 32.1206 756.537 31.9673 759.961C31.814 763.334 31.7373 765.864 31.7373 767.55C31.7373 767.755 31.7884 768.01 31.8906 768.317C31.9928 768.624 32.0439 768.879 32.0439 769.083V769.467C31.9417 769.876 31.5073 770.182 30.7407 770.387C30.3319 770.591 29.8208 770.796 29.2075 771H28.9009C27.1121 771 24.5057 770.949 21.0815 770.847C17.7085 770.744 15.1787 770.693 13.4922 770.693C12.9811 770.693 12.6234 770.642 12.4189 770.54C11.9079 770.54 11.6012 770.438 11.499 770.233C10.988 770.029 10.7069 769.773 10.6558 769.467C10.4513 769.262 10.3491 769.032 10.3491 768.777C10.2469 768.47 10.1958 768.01 10.1958 767.397V756.435V745.396V734.28C10.1958 733.002 10.2469 731.162 10.3491 728.76C10.4513 726.358 10.5024 724.544 10.5024 723.317C10.5024 722.04 10.4513 720.174 10.3491 717.721C10.2469 715.268 10.1958 713.403 10.1958 712.125C10.1958 710.847 10.2469 708.88 10.3491 706.222C10.4513 703.565 10.5024 701.546 10.5024 700.166C10.5024 698.888 10.4513 696.921 10.3491 694.263C10.2469 691.606 10.1958 689.612 10.1958 688.284C10.1958 687.006 10.2214 685.038 10.2725 682.381C10.3236 679.723 10.3491 677.705 10.3491 676.325C10.3491 675.047 10.3747 673.079 10.4258 670.422C10.4769 667.764 10.5024 665.746 10.5024 664.366C10.5024 663.752 10.5535 663.292 10.6558 662.986C10.8602 662.168 11.3457 661.708 12.1123 661.606C12.3167 661.504 12.6234 661.427 13.0322 661.376H32.0439H41.6265C41.8309 661.376 42.1631 661.35 42.623 661.299C43.083 661.248 43.4152 661.223 43.6196 661.223H44.9229C45.0251 661.223 45.1528 661.299 45.3062 661.453C45.4595 661.555 45.5872 661.606 45.6895 661.606C45.7917 661.606 46.4561 661.708 47.6826 661.913C48.9603 662.117 49.9058 662.321 50.519 662.526C52.6144 663.139 54.1476 663.65 55.1187 664.059C55.3231 664.161 55.6297 664.315 56.0386 664.519C56.4474 664.672 56.703 664.749 56.8052 664.749C57.1118 664.953 57.5973 665.209 58.2617 665.516C58.9772 665.822 59.4883 666.078 59.7949 666.282C59.9993 666.384 60.2549 666.589 60.5615 666.896C60.9193 667.202 61.1493 667.407 61.2515 667.509C61.5581 667.713 61.9159 667.994 62.3247 668.352C62.7336 668.659 63.0913 668.863 63.3979 668.965L65.4678 670.345C65.6722 670.55 65.9788 670.933 66.3877 671.495C66.7965 672.006 67.1287 672.364 67.3843 672.568L68.7642 673.795C69.173 674.408 69.5819 674.945 69.9907 675.405L70.5273 676.018C70.834 676.427 71.2173 677.04 71.6772 677.858C72.1372 678.625 72.4694 679.161 72.6738 679.468C72.8783 679.877 73.1593 680.439 73.5171 681.154C73.9259 681.819 74.1815 682.253 74.2837 682.458C74.3859 682.764 74.5648 683.173 74.8203 683.684C75.0758 684.144 75.2547 684.425 75.3569 684.527C75.7658 685.549 76.0213 686.316 76.1235 686.827C76.328 687.44 76.7113 688.744 77.2734 690.737C77.3757 690.737 77.3757 691.222 77.2734 692.193V693.573C77.2734 693.675 77.3501 693.957 77.5034 694.417C77.6567 694.825 77.7334 695.132 77.7334 695.336C77.7334 695.439 77.6823 695.49 77.5801 695.49C77.7845 696.767 77.8867 697.713 77.8867 698.326C77.8867 698.531 77.8612 698.863 77.8101 699.323C77.759 699.783 77.7334 700.115 77.7334 700.319C77.529 702.721 77.2734 704.51 76.9668 705.686C76.8646 706.299 76.5835 707.142 76.1235 708.215C76.0213 708.522 75.868 708.956 75.6636 709.519C75.4591 710.081 75.3058 710.541 75.2036 710.898L74.7437 712.585L74.2837 714.042C74.1815 714.144 73.9771 714.348 73.6704 714.655C73.4149 714.961 73.236 715.166 73.1338 715.268L72.2139 717.338C72.0094 717.645 71.7284 718.053 71.3706 718.564C71.0129 719.076 70.7062 719.484 70.4507 719.791C70.2463 720.098 69.9396 720.507 69.5308 721.018C69.1219 721.478 68.8664 721.759 68.7642 721.861C68.5597 722.167 68.2531 722.551 67.8442 723.011C67.4354 723.42 67.1032 723.777 66.8477 724.084L64.5479 726.077C62.7591 727.559 61.6603 728.454 61.2515 728.76C59.9738 729.578 58.9772 730.166 58.2617 730.523C56.984 731.137 56.0897 731.597 55.5786 731.903C54.8631 732.21 53.2533 732.747 50.749 733.513C49.9313 733.82 48.6536 734.075 46.916 734.28C46.7116 734.28 46.4049 734.331 45.9961 734.433C45.5872 734.535 45.2806 734.586 45.0762 734.586H43.0063C42.4953 734.689 41.7542 734.74 40.7832 734.74C40.0677 734.74 38.9945 734.714 37.5635 734.663C36.1836 734.612 35.1359 734.586 34.4204 734.586C34.3182 734.586 34.1393 734.638 33.8838 734.74C33.6794 734.842 33.4749 734.893 33.2705 734.893C32.7594 735.097 32.4017 735.506 32.1973 736.12C32.1973 736.324 32.1717 736.554 32.1206 736.81C32.0695 737.014 32.0439 737.167 32.0439 737.27C32.0439 737.678 32.0695 739.85 32.1206 743.786C32.1717 747.67 32.1973 750.506 32.1973 752.295ZM32.0439 697.866C32.0439 698.173 32.0184 698.658 31.9673 699.323C31.9162 699.987 31.8906 700.498 31.8906 700.856C31.8906 701.163 31.9162 701.674 31.9673 702.389C32.0184 703.105 32.0439 703.641 32.0439 703.999C32.0439 704.612 32.0695 705.66 32.1206 707.142C32.1717 708.573 32.1973 709.646 32.1973 710.362L32.0439 711.512C32.0439 712.329 32.5039 712.738 33.4238 712.738C33.526 712.738 33.6794 712.764 33.8838 712.815C34.0882 712.866 34.3182 712.892 34.5737 712.892C35.187 712.892 36.2091 712.917 37.6401 712.968C39.1222 713.019 40.2466 713.045 41.0132 713.045H42.3931L45.2295 712.585L47.0693 711.665C47.5804 711.461 48.2703 711.026 49.1392 710.362L51.0557 708.982C51.8734 708.369 52.4867 707.679 52.8955 706.912C53.4066 706.197 53.6621 705.788 53.6621 705.686C53.9688 705.379 54.2498 705.021 54.5054 704.612L55.7319 702.083V700.856C56.0386 699.272 56.1919 698.377 56.1919 698.173C56.1919 697.968 56.1408 697.738 56.0386 697.483C55.9364 697.176 55.8853 696.972 55.8853 696.87V695.643C55.8853 695.439 55.8853 695.158 55.8853 694.8C55.8853 694.442 55.8341 694.187 55.7319 694.033C55.5275 693.215 55.3231 692.602 55.1187 692.193C54.9142 691.682 54.4798 690.89 53.8154 689.817C53.3044 689.101 52.6911 688.309 51.9756 687.44C51.8734 687.338 51.7456 687.262 51.5923 687.21C51.439 687.159 51.3112 687.134 51.209 687.134C50.3913 686.112 49.7013 685.447 49.1392 685.141C48.6281 684.834 47.8359 684.451 46.7627 683.991C45.3828 683.377 43.5174 683.071 41.1665 683.071L40.0166 683.224C39.6077 683.02 39.3522 682.917 39.25 682.917C36.9502 682.917 35.1615 682.969 33.8838 683.071C33.4749 683.071 33.2194 683.122 33.1172 683.224C32.7083 683.326 32.4528 683.556 32.3506 683.914C32.2484 684.221 32.1973 684.681 32.1973 685.294V691.58L32.3506 693.727C32.3506 695.311 32.2995 696.103 32.1973 696.103C32.1973 696.307 32.1717 696.64 32.1206 697.1C32.0695 697.508 32.0439 697.764 32.0439 697.866ZM187.094 716.035C187.094 717.21 187.119 718.948 187.17 721.248C187.221 723.547 187.247 725.311 187.247 726.537C187.247 727.713 187.273 729.45 187.324 731.75C187.375 734.05 187.4 735.787 187.4 736.963V747.465C187.4 748.641 187.375 750.404 187.324 752.755C187.273 755.055 187.247 756.792 187.247 757.968C187.247 759.143 187.221 760.881 187.17 763.181C187.119 765.48 187.094 767.244 187.094 768.47C187.094 768.572 187.145 768.777 187.247 769.083C187.349 769.339 187.4 769.569 187.4 769.773C187.4 770.387 187.017 770.796 186.25 771H185.637C184.922 771.102 183.772 771.153 182.187 771.153C180.603 771.153 178.278 771.102 175.211 771C172.145 770.898 169.82 770.847 168.235 770.847C168.133 770.847 167.878 770.898 167.469 771C167.111 771.102 166.83 771.102 166.625 771C166.114 770.796 165.859 770.336 165.859 769.62C165.552 768.7 165.399 768.164 165.399 768.01C165.399 766.988 165.424 765.455 165.476 763.411C165.527 761.366 165.552 759.833 165.552 758.811C165.552 757.738 165.603 756.179 165.706 754.135C165.808 752.09 165.859 750.532 165.859 749.458C165.859 749.356 165.808 749.203 165.706 748.999V748.692C165.603 748.487 165.297 748.232 164.786 747.925H163.789C161.898 747.925 159.164 747.874 155.586 747.772C152.06 747.67 149.428 747.619 147.69 747.619C147.282 747.619 146.949 747.67 146.694 747.772C146.183 747.772 145.927 748.028 145.927 748.539C145.825 748.743 145.774 749.126 145.774 749.688C145.774 750.2 145.748 750.992 145.697 752.065C145.646 753.087 145.621 753.803 145.621 754.211C145.621 755.796 145.646 758.249 145.697 761.571C145.748 764.842 145.774 767.244 145.774 768.777C145.774 768.879 145.799 769.058 145.851 769.313C145.902 769.518 145.927 769.671 145.927 769.773C145.825 770.489 145.314 770.949 144.394 771.153C144.19 771.153 143.857 771.128 143.397 771.077C142.989 771.026 142.682 771 142.478 771C140.791 771 138.21 770.974 134.735 770.923C131.311 770.872 128.704 770.847 126.915 770.847C126.302 770.847 125.842 770.796 125.536 770.693C124.922 770.489 124.59 770.182 124.539 769.773C124.335 769.16 124.232 768.675 124.232 768.317V756.588V744.782C124.232 743.505 124.283 741.562 124.386 738.956C124.488 736.35 124.539 734.356 124.539 732.977C124.539 731.699 124.513 729.757 124.462 727.15C124.411 724.544 124.386 722.576 124.386 721.248V709.595V706.759C124.488 706.452 124.539 706.043 124.539 705.532C124.539 705.021 124.616 704.663 124.769 704.459C124.769 704.255 124.795 703.846 124.846 703.232C124.897 702.568 124.922 702.134 124.922 701.929C125.127 699.425 125.382 697.585 125.689 696.41C125.689 696.103 125.74 695.771 125.842 695.413C125.944 695.055 126.072 694.646 126.226 694.187C126.379 693.675 126.507 693.318 126.609 693.113C126.915 691.733 127.273 690.532 127.682 689.51C127.887 688.795 128.321 687.696 128.985 686.214C129.088 686.009 129.19 685.703 129.292 685.294C129.394 684.885 129.496 684.578 129.599 684.374C129.905 683.761 130.365 682.917 130.978 681.844C131.081 681.64 131.208 681.359 131.362 681.001C131.566 680.592 131.72 680.285 131.822 680.081C131.924 679.877 132.103 679.647 132.358 679.391C132.614 679.136 132.793 678.957 132.895 678.854C132.997 678.65 133.151 678.369 133.355 678.011C133.559 677.602 133.764 677.296 133.968 677.091L135.578 675.251C136.498 674.229 137.495 673.233 138.568 672.262C138.67 672.16 139.181 671.776 140.101 671.112C140.408 670.601 140.612 670.294 140.714 670.192C140.919 669.987 141.225 669.783 141.634 669.579C142.094 669.374 142.426 669.221 142.631 669.119C142.835 668.914 143.244 668.582 143.857 668.122C144.522 667.611 145.007 667.253 145.314 667.049L146.694 666.282C147.103 666.282 147.384 666.231 147.537 666.129C147.741 666.129 147.946 666.027 148.15 665.822C148.355 665.618 148.559 665.516 148.764 665.516C149.684 665.005 150.578 664.57 151.447 664.212C151.856 664.008 152.469 663.804 153.287 663.599C154.769 663.19 155.816 662.935 156.43 662.833C157.043 662.628 158.397 662.27 160.493 661.759C160.799 661.759 161.234 661.759 161.796 661.759C162.409 661.759 162.869 661.708 163.176 661.606C163.38 661.606 163.712 661.58 164.172 661.529C164.683 661.427 165.041 661.376 165.246 661.376C165.757 661.274 166.6 661.223 167.775 661.223C169.257 661.018 170.305 660.916 170.918 660.916H179.198C183.695 661.223 186.276 662.705 186.94 665.362C187.247 666.64 187.4 669.783 187.4 674.792V683.377V684.527C187.4 685.703 187.375 687.466 187.324 689.817C187.273 692.117 187.247 693.854 187.247 695.03C187.247 696.154 187.221 697.892 187.17 700.243C187.119 702.594 187.094 704.357 187.094 705.532V716.035ZM165.859 704.612C165.859 703.59 165.833 701.98 165.782 699.783C165.731 697.534 165.706 695.847 165.706 694.723C165.706 693.548 165.68 691.887 165.629 689.74C165.578 687.594 165.552 685.958 165.552 684.834V684.374C165.552 683.965 165.501 683.633 165.399 683.377C165.092 683.071 164.786 682.917 164.479 682.917C164.275 682.917 164.045 682.969 163.789 683.071C163.585 683.173 163.431 683.224 163.329 683.224C162.92 683.326 162.409 683.377 161.796 683.377C161.183 683.582 160.339 683.786 159.266 683.991C159.062 684.093 158.755 684.246 158.346 684.451C157.937 684.604 157.682 684.681 157.58 684.681C157.477 684.783 157.298 684.86 157.043 684.911C156.839 684.962 156.634 685.013 156.43 685.064C156.225 685.115 156.072 685.141 155.97 685.141C155.663 685.345 154.615 686.188 152.827 687.67C151.804 688.488 151.063 689.153 150.603 689.664C150.297 690.072 149.786 691.171 149.07 692.96C148.355 694.135 147.946 694.928 147.844 695.336C147.23 697.023 146.796 698.275 146.54 699.093C146.336 700.268 146.132 701.776 145.927 703.616V705.992V708.522C145.927 709.033 145.876 709.825 145.774 710.898C145.672 711.921 145.621 712.687 145.621 713.198V724.391C145.621 724.697 145.723 725.055 145.927 725.464C145.927 725.975 146.183 726.23 146.694 726.23C146.898 726.333 147.23 726.384 147.69 726.384C154.896 726.384 160.263 726.333 163.789 726.23C163.891 726.23 164.045 726.205 164.249 726.154C164.505 726.103 164.683 726.077 164.786 726.077C165.092 725.975 165.297 725.719 165.399 725.311L165.552 724.697C165.552 723.522 165.603 721.81 165.706 719.561C165.808 717.312 165.859 715.677 165.859 714.655V704.612ZM240.569 715.881C240.569 714.501 240.543 712.457 240.492 709.749C240.441 707.04 240.415 705.021 240.415 703.692C240.415 702.312 240.339 700.268 240.185 697.56C240.083 694.8 240.032 692.756 240.032 691.427V679.008V666.742C240.032 664.749 240.518 663.292 241.489 662.373C242.204 661.759 243.456 661.453 245.245 661.453C247.034 661.402 249.487 661.274 252.604 661.069C253.78 661.069 255.441 661.12 257.587 661.223C259.734 661.325 261.318 661.376 262.34 661.376C265.458 661.478 268.703 661.81 272.076 662.373C277.493 663.395 281.48 664.493 284.035 665.669C286.948 666.844 290.551 668.991 294.844 672.108C298.626 674.715 301.718 677.475 304.12 680.388C307.595 684.272 310.1 687.619 311.633 690.43C313.319 693.65 314.699 697.636 315.772 702.389C316.948 706.682 317.51 710.822 317.459 714.808C317.663 719.101 317.357 723.292 316.539 727.38C315.823 731.162 314.469 735.123 312.476 739.263C311.198 742.074 308.873 745.523 305.5 749.612C303.302 752.525 300.364 755.464 296.684 758.428C293.055 761.392 289.58 763.641 286.258 765.174C282.476 767.065 278.541 768.496 274.453 769.467C271.437 770.08 266.889 770.489 260.807 770.693C257.894 770.693 253.294 770.591 247.008 770.387C246.395 770.285 245.782 770.259 245.168 770.31C244.606 770.361 243.993 770.361 243.329 770.31C242.715 770.259 242.204 770.08 241.795 769.773C240.62 769.058 240.032 767.525 240.032 765.174C240.032 764.663 240.058 763.922 240.109 762.951C240.16 761.929 240.185 761.213 240.185 760.804C240.185 759.322 240.134 757.125 240.032 754.211C239.93 751.298 239.879 749.101 239.879 747.619C239.879 746.137 239.93 743.913 240.032 740.949C240.134 737.934 240.185 735.66 240.185 734.126C240.185 732.644 240.237 730.421 240.339 727.457C240.492 724.442 240.569 722.167 240.569 720.634V715.881ZM262.034 715.881C262.034 716.29 262.059 716.903 262.11 717.721C262.161 718.488 262.187 719.024 262.187 719.331C262.187 721.12 262.238 723.777 262.34 727.304C262.442 730.779 262.494 733.36 262.494 735.046V743.019V746.009C262.596 746.315 263.132 747.005 264.103 748.079C265.126 748.283 265.918 748.385 266.48 748.385H267.4C270.415 747.976 273.712 746.878 277.289 745.089C281.275 742.993 284.137 741.051 285.875 739.263C288.481 736.758 290.577 733.999 292.161 730.983C293.183 728.888 294.129 725.541 294.997 720.941C295.304 718.948 295.457 716.852 295.457 714.655C295.457 712.866 295.355 711.512 295.151 710.592C294.64 707.474 293.49 704.152 291.701 700.626C290.526 698.428 288.328 695.822 285.108 692.807C282.195 689.894 279.435 687.849 276.829 686.674C273.814 685.192 270.517 684.195 266.94 683.684C265.253 683.48 264.052 683.812 263.337 684.681C262.724 685.294 262.391 686.291 262.34 687.67C262.34 688.693 262.289 690.251 262.187 692.347C262.085 694.442 262.034 696.001 262.034 697.023V706.452V715.881ZM361.121 714.042C361.121 712.866 361.275 711.767 361.581 710.745C360.968 710.541 361.454 707.755 363.038 702.389C363.958 697.892 365.772 693.139 368.481 688.13C370.27 685.319 371.445 683.582 372.007 682.917C374.92 678.931 378.038 675.584 381.36 672.875C381.666 672.568 382.152 672.211 382.816 671.802L383.43 671.112L388.336 667.815L388.949 667.662C389.256 667.56 389.46 667.458 389.562 667.355C389.665 667.355 389.869 667.253 390.176 667.049C390.482 666.844 390.738 666.742 390.942 666.742L391.096 666.436C391.096 666.333 391.147 666.282 391.249 666.282H391.632C391.939 665.976 392.348 665.72 392.859 665.516C392.961 665.413 393.14 665.311 393.395 665.209C393.651 665.107 393.83 665.005 393.932 664.902C394.034 664.902 394.136 664.851 394.239 664.749L394.545 664.519C394.75 664.417 395.107 664.289 395.619 664.136C396.181 663.982 396.564 663.855 396.768 663.752C397.791 663.446 398.481 663.241 398.838 663.139C398.94 663.139 399.068 663.062 399.222 662.909C399.375 662.756 399.503 662.679 399.605 662.679C399.707 662.577 399.963 662.526 400.371 662.526H400.985C401.087 662.424 401.24 662.373 401.445 662.373C401.7 662.373 401.879 662.321 401.981 662.219L402.901 661.759C403.106 661.657 403.412 661.606 403.821 661.606L406.964 660.763C407.884 660.763 408.625 660.712 409.187 660.609C409.29 660.609 409.494 660.558 409.801 660.456C410.107 660.354 410.363 660.303 410.567 660.303C410.772 660.201 411.104 660.149 411.564 660.149C412.075 660.149 412.484 660.149 412.79 660.149C414.886 659.945 416.342 660.584 417.16 662.066C417.262 662.168 417.339 662.321 417.39 662.526C417.441 662.73 417.492 662.935 417.543 663.139C417.594 663.344 417.62 663.497 417.62 663.599C417.927 666.308 418.106 668.991 418.157 671.648C418.157 673.744 418.106 675.251 418.003 676.171C417.799 680.056 416.368 682.151 413.71 682.458H413.097H412.177L409.954 682.917C405.354 683.94 401.087 685.907 397.152 688.82C393.217 691.682 390.099 695.158 387.799 699.246C387.697 699.451 387.595 699.783 387.493 700.243C387.39 700.652 387.288 700.958 387.186 701.163L386.573 702.236C386.573 702.338 386.624 702.44 386.726 702.542L386.879 702.849C386.879 703.36 386.93 703.667 387.033 703.769C387.237 704.076 387.493 704.357 387.799 704.612H389.562C389.767 704.612 390.099 704.638 390.559 704.689C391.019 704.74 391.377 704.766 391.632 704.766H391.786H392.245C392.348 704.663 392.45 704.663 392.552 704.766L392.705 704.919C396.692 704.919 399.682 704.868 401.675 704.766C403.668 704.766 405.124 704.715 406.044 704.612C406.453 704.612 407.066 704.663 407.884 704.766C408.753 704.868 409.392 704.919 409.801 704.919H410.107C411.896 704.919 413.097 705.021 413.71 705.226C413.813 705.328 413.915 705.379 414.017 705.379C414.937 705.992 415.525 706.887 415.78 708.062C415.882 708.471 415.933 709.135 415.933 710.055V713.505V719.331C415.933 719.433 415.882 719.535 415.78 719.638L415.933 719.791C416.036 719.995 416.087 720.149 416.087 720.251C416.087 723.266 415.576 725.208 414.554 726.077C413.634 726.793 412.305 727.176 410.567 727.227C409.392 727.227 408.523 727.176 407.961 727.074C406.939 726.972 405.354 726.972 403.208 727.074C401.113 727.176 399.758 727.227 399.145 727.227C398.123 727.227 396.564 727.201 394.469 727.15C392.424 727.099 390.942 727.074 390.022 727.074C389.102 727.074 388.412 727.176 387.953 727.38C387.544 727.483 387.237 727.738 387.033 728.147C386.726 728.454 386.573 728.76 386.573 729.067V729.987C386.573 730.191 386.777 730.626 387.186 731.29V731.75L388.336 733.667C388.54 733.973 388.872 734.433 389.332 735.046C389.792 735.66 390.125 736.069 390.329 736.273C390.84 736.988 392.092 738.368 394.085 740.413C394.29 740.617 394.545 740.924 394.852 741.333C395.21 741.741 395.491 742.048 395.695 742.252C395.9 742.457 397.842 743.607 401.521 745.702C404.639 747.389 407.501 748.487 410.107 748.999C410.312 749.101 410.746 749.152 411.411 749.152C411.615 749.152 411.896 749.177 412.254 749.229C412.612 749.28 412.893 749.356 413.097 749.458C413.915 749.663 414.656 749.893 415.32 750.148C415.627 750.251 416.036 750.557 416.547 751.068L417.313 751.835C417.62 752.346 417.799 752.934 417.85 753.598V754.518V755.131C417.952 755.949 418.003 757.201 418.003 758.888C418.003 760.676 417.952 762.056 417.85 763.027C417.85 764.714 417.773 765.966 417.62 766.784C417.62 768.675 417.569 769.722 417.467 769.927L417.007 770.847L416.547 771.153C416.342 771.358 416.087 771.46 415.78 771.46C414.962 771.869 414.119 772.073 413.25 772.073C412.433 772.073 411.87 771.971 411.564 771.767H409.647C408.37 771.562 407.475 771.358 406.964 771.153H406.351C406.147 771.153 405.865 771.051 405.508 770.847C405.15 770.642 404.843 770.54 404.588 770.54C404.486 770.54 404.307 770.566 404.051 770.617C403.796 770.668 403.566 770.642 403.361 770.54C402.646 770.438 401.802 770.182 400.831 769.773L396.155 767.857C393.651 767.039 392.297 766.579 392.092 766.477C391.581 766.273 391.479 765.992 391.786 765.634C391.377 766.043 389.281 764.842 385.499 762.031L384.656 761.724C384.145 761.52 383.787 761.315 383.583 761.111C383.276 760.804 382.714 760.344 381.896 759.731C381.488 759.424 380.849 758.862 379.98 758.044C379.162 757.176 378.574 756.562 378.217 756.205C376.632 754.825 374.563 752.525 372.007 749.305L370.704 747.619C370.5 747.312 370.244 746.801 369.937 746.085C369.631 745.319 369.375 744.782 369.171 744.476C369.069 744.271 368.89 744.041 368.634 743.786C368.43 743.53 368.276 743.351 368.174 743.249L368.021 742.559C366.539 740.157 365.644 738.547 365.338 737.729C365.133 737.116 364.801 736.171 364.341 734.893C363.881 733.615 363.549 732.619 363.345 731.903L362.885 730.37C362.885 730.268 362.885 730.063 362.885 729.757C362.885 729.399 362.834 729.118 362.731 728.914C362.629 728.505 362.578 727.943 362.578 727.227C362.578 727.023 362.45 726.742 362.195 726.384C361.99 725.975 361.837 725.668 361.735 725.464C361.633 725.157 361.581 724.697 361.581 724.084C361.581 723.42 361.53 722.934 361.428 722.627C361.326 721.81 361.275 720.609 361.275 719.024C361.173 718.002 361.121 716.341 361.121 714.042ZM470.558 722.244C470.507 719.382 470.482 717.287 470.482 715.958C470.482 714.578 470.507 712.483 470.558 709.672C470.61 706.81 470.635 704.663 470.635 703.232C470.635 701.75 470.584 699.578 470.482 696.716C470.38 693.803 470.328 691.657 470.328 690.277C470.328 688.795 470.354 686.648 470.405 683.837C470.456 681.027 470.482 678.957 470.482 677.628C470.482 676.248 470.507 674.102 470.558 671.188C470.61 668.224 470.635 666.078 470.635 664.749C470.635 663.931 470.686 663.292 470.788 662.833C471.197 662.117 471.683 661.58 472.245 661.223C472.756 661.223 473.114 661.172 473.318 661.069C473.523 661.069 473.829 661.095 474.238 661.146C474.698 661.197 475.03 661.223 475.235 661.223C476.41 661.223 478.122 661.197 480.371 661.146C482.671 661.095 484.408 661.069 485.584 661.069C485.993 661.069 486.606 661.172 487.424 661.376L488.88 662.373V663.292C489.187 664.212 489.34 664.749 489.34 664.902V676.018C489.34 677.296 489.366 679.187 489.417 681.691C489.468 684.195 489.493 686.086 489.493 687.364C489.493 688.59 489.468 690.456 489.417 692.96C489.366 695.464 489.34 697.355 489.34 698.633V709.902C489.34 711.18 489.315 713.07 489.264 715.575C489.212 718.079 489.187 719.97 489.187 721.248C489.187 722.423 489.238 724.263 489.34 726.767C489.442 729.271 489.493 731.162 489.493 732.44C489.493 733.667 489.442 735.532 489.34 738.036C489.238 740.54 489.187 742.431 489.187 743.709V745.089C489.187 745.191 489.212 745.396 489.264 745.702C489.315 746.009 489.34 746.29 489.34 746.545C489.545 748.028 489.851 749.05 490.26 749.612C490.873 750.634 491.461 751.273 492.023 751.528C492.637 751.733 493.531 751.835 494.706 751.835H495.013L495.32 751.988C495.524 752.09 495.677 752.09 495.78 751.988C495.882 751.988 495.984 751.937 496.086 751.835L496.24 751.682C496.342 751.682 496.495 751.707 496.7 751.758C496.904 751.809 497.057 751.835 497.16 751.835C497.773 751.835 498.82 751.886 500.303 751.988C501.785 752.09 502.832 752.142 503.446 752.142C504.366 752.142 505.056 752.244 505.515 752.448C506.333 752.857 506.793 753.189 506.895 753.445C507.1 753.751 507.202 754.263 507.202 754.978C507.304 755.285 507.304 755.77 507.202 756.435C507.1 757.048 507.049 757.457 507.049 757.661V766.784V768.777C506.844 769.697 506.129 770.336 504.902 770.693H502.832C501.248 770.693 498.872 770.719 495.703 770.77C492.585 770.821 490.235 770.847 488.65 770.847C487.117 770.847 484.741 770.872 481.521 770.923C478.352 770.974 475.976 771 474.391 771C474.085 771 473.523 770.898 472.705 770.693C472.194 770.693 471.657 770.336 471.095 769.62C470.891 769.518 470.788 769.186 470.788 768.624C470.482 767.704 470.328 767.193 470.328 767.09C470.328 765.71 470.38 763.615 470.482 760.804C470.584 757.993 470.635 755.847 470.635 754.365C470.635 752.883 470.61 750.711 470.558 747.849C470.507 744.987 470.482 742.866 470.482 741.486C470.482 740.004 470.507 737.857 470.558 735.046C470.61 732.236 470.635 730.14 470.635 728.76C470.635 727.278 470.61 725.106 470.558 722.244Z" fill="#D6FF1E"></path>
  <path fill-rule="evenodd" clip-rule="evenodd" d="M9 528H175.964C177.249 530.677 178.566 533.342 179.915 535.994L203.497 574.274C204.79 576.424 206.275 578.435 207.951 580.305C207.712 580.522 207.537 580.784 207.427 581.091C208.83 588.718 210.402 596.322 212.144 603.902C211.63 610.107 211.718 616.315 212.406 622.518C213.074 623.682 213.598 624.904 213.978 626.189C218.303 630.022 223.369 632.12 229.175 632.482C231.213 637.686 233.295 642.858 235.42 648H9V528ZM343.609 648H309.547C308.373 635.447 307.261 622.929 306.21 610.457C305.357 608.108 304.571 605.748 303.852 603.378C304.651 600.733 304.913 598.023 304.638 595.25C303.484 590.111 302.262 585.042 300.969 580.043L331.626 601.28C334.858 603.815 337.74 606.699 340.273 609.933C341.265 614.784 341.964 619.681 342.369 624.616C342.465 632.434 342.879 640.227 343.609 648ZM509 648H400.185C399.372 641.524 398.092 635.126 396.345 628.811C395.578 614.138 395.054 599.455 394.773 584.762C394.076 580.746 392.853 576.901 391.105 573.226C384.884 564.552 377.897 556.511 370.143 549.104C366.596 542.752 362.229 536.983 357.042 531.799C356.273 530.526 355.495 529.259 354.706 528H509V648Z" fill="#D6FF1E"></path>
  <path fill-rule="evenodd" clip-rule="evenodd" d="M9 396H158.985C160.01 400.017 161.048 404.032 162.097 408.043C167.01 418.597 168.67 429.609 167.076 441.079C168.007 446.28 168.269 451.523 167.862 456.811C166.237 461.042 165.189 465.412 164.718 469.921C164.368 479.709 164.368 489.498 164.718 499.287C165.159 501.578 165.683 503.85 166.29 506.104C167.633 509.421 169.022 512.72 170.459 516H9V396ZM509 516H346.731C346.501 515.672 346.269 515.345 346.037 515.018C340.509 509.055 335.705 502.588 331.626 495.616L329.324 494.208L326.909 492.732C324.027 489.148 320.795 485.915 317.215 483.03C314.736 480.724 312.64 478.102 310.926 475.165C309.725 474.488 308.677 473.614 307.782 472.543C306.447 468.761 304.001 465.964 300.445 464.152C299.701 462.837 298.827 461.613 297.825 460.482C293.53 449.485 290.56 438.123 288.916 426.396L285.248 418.006C283.372 410.716 282.163 403.381 281.62 396H509V516Z" fill="#C1EC00"></path>
  <path fill-rule="evenodd" clip-rule="evenodd" d="M286.211 264H421.422C418.375 270.681 415.519 277.443 412.853 284.287C411.436 284.161 410.039 284.423 408.66 285.073C408.024 286.306 407.587 287.617 407.35 289.006C405.71 290.122 404.225 291.433 402.896 292.939C387.028 301.064 370.434 307.357 353.112 311.817C336.692 314.65 320.184 316.835 303.589 318.372C301.518 318.225 299.51 317.788 297.563 317.061C294.784 313.803 291.989 310.481 289.178 307.098C287.87 306.531 286.647 305.832 285.51 305C281.047 300.795 276.505 296.687 271.885 292.677C271.208 291.433 270.684 290.122 270.313 288.744C275.874 280.673 281.174 272.425 286.211 264ZM9 264H133.059C133.02 265.247 133.004 266.503 133.013 267.768C134.627 292.23 138.033 316.44 143.232 340.396C145.016 348.548 147.636 356.414 151.093 363.994C152.682 370.671 154.305 377.34 155.961 384H9V264ZM509 384H281.324C281.43 379.533 281.777 375.049 282.366 370.549C282.295 368.696 282.12 366.86 281.842 365.043C282.561 364.96 283.26 365.048 283.938 365.305C290.15 368.383 296.089 371.879 301.755 375.793C305.85 376.3 309.868 375.951 313.808 374.744C318.472 372.373 323.363 370.624 328.482 369.5C344.287 369.086 358.786 364.542 371.977 355.866C379.156 350.524 386.143 344.931 392.939 339.085L394.793 338.158L395.559 337.774L398.18 336.463C409.21 327.697 420.39 319.132 431.718 310.768C435.53 310.088 439.373 309.563 443.247 309.195L445.868 307.622C448.494 303.948 451.463 300.627 454.776 297.659C456.226 296.889 457.536 295.928 458.707 294.774L463.423 284.811C463.87 282.453 463.607 280.181 462.637 277.994C463.477 276.503 463.739 274.929 463.423 273.274C462.889 271.348 461.928 269.687 460.541 268.293C460.938 266.874 461.096 265.443 461.015 264H509V384Z" fill="#99BB00"></path>
  <path fill-rule="evenodd" clip-rule="evenodd" d="M257.875 132H351.36C348.109 142.846 349.13 155.153 354.422 168.921C357.174 173.204 359.794 177.574 362.282 182.03C373.619 195.648 386.458 207.622 400.8 217.951C408.207 224.488 415.456 231.218 422.548 238.14C423.421 240.412 424.294 242.685 425.168 244.957C425.923 245.676 426.797 246.2 427.788 246.53C428.196 248.38 428.63 250.203 429.089 252H293.141C294.731 249.148 296.292 246.276 297.825 243.384C299.799 241.012 301.895 238.74 304.114 236.567C307.938 229.478 310.558 221.962 311.974 214.018L313.808 212.183C316.751 211.261 319.546 210.037 322.193 208.512C323.001 207.684 323.612 206.722 324.027 205.628C324.99 201.567 323.418 199.295 319.311 198.811C316.709 200.462 313.915 201.685 310.926 202.482C309.893 202.498 309.107 202.061 308.568 201.171C308.944 198.913 309.904 196.729 311.45 194.616C313.642 191.28 316.088 188.133 318.787 185.177C319.208 183.305 318.771 181.644 317.477 180.195C315.27 179.391 312.999 179.216 310.664 179.671C308.987 181.525 307.152 183.186 305.162 184.652C303.62 187.417 301.874 190.039 299.921 192.518C299.841 186.996 301.85 182.365 305.948 178.622C308 177.651 309.485 176.165 310.402 174.165C310.443 172.66 310.006 171.262 309.092 169.969C307.011 168.551 304.74 168.114 302.279 168.659C299.42 170.644 296.712 172.83 294.157 175.213C294.069 174.077 293.982 172.941 293.895 171.805C293.807 170.669 293.72 169.532 293.633 168.396C293.221 167.46 292.61 166.673 291.798 166.037C289.329 165.28 287.32 165.891 285.772 167.872L283.186 174.082L280.532 180.457C279.102 186.476 277.443 192.419 275.553 198.287C272.727 198.974 269.933 199.761 267.168 200.646C264.81 202.626 264.635 204.723 266.644 206.939L269.017 208.126L269.314 208.275C270.171 208.703 271.028 209.132 271.885 209.561C272.388 210.305 272.824 211.092 273.195 211.921C273.004 217.709 273.441 223.477 274.505 229.226C274.215 230.332 273.778 231.381 273.195 232.372C268.899 236.495 264.794 240.778 260.88 245.219C260.051 245.59 259.265 246.027 258.522 246.53C257.607 244.524 256.559 242.601 255.377 240.762L246.207 231.585C242.256 229.17 238.588 226.373 235.202 223.195C241.641 223.515 246.27 220.806 249.089 215.067C250.169 209.882 250.868 204.639 251.185 199.335C253.136 191.557 255.406 183.866 257.998 176.262C257.959 170.32 257.959 164.377 257.998 158.433C258.989 156.506 259.775 154.495 260.356 152.402C258.883 147.439 257.835 142.37 257.212 137.195C257.485 136.036 257.834 134.9 258.26 133.787C258.091 133.185 257.963 132.589 257.875 132ZM154.237 210.348C143.475 222.65 136.806 236.534 134.228 252H9V132H165.5C164.742 140.644 165.704 149.105 168.386 157.384C168.72 160.104 168.633 162.814 168.124 165.512C168.478 171.698 169.177 177.816 170.22 183.866C169.372 189.163 168.586 194.494 167.862 199.86C163.415 203.483 158.873 206.978 154.237 210.348ZM452.418 244.957C453.368 247.343 454.381 249.69 455.457 252H509V132H475.537C475.607 132.418 475.674 132.838 475.738 133.262V144.799C474.724 154.235 472.627 163.5 469.449 172.591C469.559 172.899 469.734 173.161 469.974 173.378C462.447 191.176 455.198 209.093 448.226 227.128C447.034 231.316 445.898 235.511 444.819 239.713C444.867 240.62 445.041 241.493 445.344 242.335C446.888 242.766 448.46 243.028 450.06 243.122C450.996 243.534 451.782 244.145 452.418 244.957ZM418.617 133.262C421.623 132.943 422.671 134.166 421.761 136.933C418.598 137.398 417.55 136.175 418.617 133.262ZM400.8 138.506C403.938 138.592 404.636 139.903 402.896 142.439C401.025 143.018 399.977 142.319 399.752 140.341C400.173 139.758 400.523 139.146 400.8 138.506ZM382.982 143.75C385.625 144.234 386.324 145.545 385.078 147.683C381.778 147.942 381.079 146.632 382.982 143.75ZM443.247 148.994C446.294 148.764 447.167 150.075 445.868 152.927C442.975 153.121 442.101 151.81 443.247 148.994ZM425.43 154.238C428.568 154.324 429.266 155.635 427.526 158.171C424.336 158.278 423.637 156.967 425.43 154.238ZM407.088 160.006C409.8 159.485 410.761 160.534 409.97 163.152C408.091 164.621 406.781 164.184 406.04 161.841C406.291 161.158 406.64 160.547 407.088 160.006ZM389.271 165.25C392.276 165.271 392.975 166.495 391.367 168.921C390.542 169.514 389.669 169.601 388.747 169.183C388.004 167.745 388.179 166.434 389.271 165.25ZM450.06 169.969C452.84 170.358 453.539 171.669 452.156 173.902C448.856 174.162 448.156 172.851 450.06 169.969ZM431.194 175.738C434.603 175.548 435.476 176.859 433.814 179.671C430.82 179.881 429.947 178.57 431.194 175.738ZM413.377 180.982C416.515 181.068 417.213 182.379 415.473 184.915C413.602 185.494 412.554 184.795 412.329 182.817C412.751 182.233 413.1 181.622 413.377 180.982ZM395.559 186.226C399.305 187.24 399.567 188.813 396.345 190.945C394.305 189.608 394.043 188.035 395.559 186.226ZM434.863 209.299H437.483C436.356 213.976 435.395 218.696 434.601 223.457C432.619 226.861 430.523 226.861 428.312 223.457C425.772 220.218 423.239 216.984 420.713 213.756C420.772 212.853 421.034 212.766 421.499 213.494C424.789 212.29 428.195 211.504 431.718 211.134C432.885 210.641 433.933 210.029 434.863 209.299ZM50.738 187.274V192.518C53.5319 187.743 57.0255 183.46 61.2189 179.671C69.0701 175.042 77.1055 170.672 85.325 166.561C89.1437 163.877 92.1133 160.469 94.2337 156.335C94.124 156.028 93.9494 155.766 93.7097 155.549C89.8885 154.839 86.0455 154.665 82.1807 155.024C64.3139 158.656 53.833 169.406 50.738 187.274ZM97.902 156.86C109.341 159.827 117.29 166.818 121.746 177.835C123.152 181.557 123.938 185.402 124.104 189.372C118.74 190.198 114.024 192.383 109.955 195.927L94.4957 214.543C85.3015 223.94 74.908 225.6 63.3151 219.524C53.4294 210.792 51.4205 200.566 57.2886 188.848C59.8694 185.215 63.101 182.331 66.9834 180.195C74.5779 176.308 82.0893 172.288 89.5173 168.134C93.4076 165.14 96.2025 161.382 97.902 156.86ZM124.628 194.354C124.349 193.294 123.651 192.858 122.532 193.043C118.568 194.679 114.899 196.864 111.527 199.598C107.709 204.182 103.953 208.814 100.26 213.494C94.5859 220.658 87.3367 225.377 78.5124 227.652C83.8561 229.306 89.2712 229.568 94.7578 228.439C112.128 223.639 122.085 212.277 124.628 194.354Z" fill="#4B8BAD"></path>
  <path fill-rule="evenodd" clip-rule="evenodd" d="M9 60C9 26.8629 35.8629 0 69 0H449C482.137 0 509 26.8629 509 60V120H472.381C466.058 103.139 452.853 93.0515 432.766 89.7378H422.286C406.336 90.8012 391.139 94.9089 376.694 102.061C368.147 107.352 361.615 113.331 357.098 120H257.947L257.474 118.579C258.378 113.634 256.369 111.187 251.447 111.238C251.522 110.314 251.347 109.44 250.923 108.616C247.866 106.342 245.071 103.808 242.538 101.012C238.582 99.6468 235.264 97.3744 232.581 94.1951C230.425 93.5535 228.503 92.5048 226.817 91.0488C217.035 90.6992 207.253 90.6992 197.47 91.0488C194.559 91.9956 191.59 92.6948 188.562 93.1463C188.212 93.6707 187.863 94.1951 187.514 94.7195C180.473 98.0244 174.447 102.656 169.434 108.616C168.016 112.035 166.793 115.531 165.766 119.104C165.727 119.238 165.69 119.372 165.654 119.507C165.609 119.671 165.566 119.836 165.525 120H9V60ZM394.511 117.006C396.906 116.947 397.92 117.945 397.553 120H393.68C393.356 118.838 393.633 117.84 394.511 117.006ZM430.67 106.518C433.921 106.421 434.62 107.732 432.766 110.451C429.786 110.341 429.087 109.03 430.67 106.518ZM412.329 111.762C414.403 111.279 415.626 112.065 415.997 114.122C415.047 116.173 413.737 116.435 412.067 114.909C411.711 113.809 411.799 112.76 412.329 111.762Z" fill="#33648D"></path>
</svg>
